<?xml version="1.0" encoding="UTF-8" standalone="no"?>
<svg xmlns="http://www.w3.org/2000/svg" width="800" height="600" viewBox="0 0 800 600">
  <!-- Sky background -->
  <rect width="800" height="600" fill="#1a3f5f" />
  
  <!-- Ground/lawn -->
  <rect y="450" width="800" height="150" fill="#2e5e36" />
  
  <!-- Capitol building backdrop -->
  <rect x="150" y="150" width="500" height="300" fill="#e6e6e6" />
  
  <!-- Main dome -->
  <ellipse cx="400" cy="150" rx="120" ry="30" fill="#e6e6e6" />
  <path d="M 280,150 Q 400,50 520,150" fill="#cfd8dc" stroke="#b0bec5" stroke-width="3" />
  
  <!-- Dome top -->
  <circle cx="400" cy="50" r="15" fill="#b0bec5" />
  <rect x="395" y="20" width="10" height="30" fill="#b0bec5" />
  <circle cx="400" cy="15" r="5" fill="#b0bec5" />
  
  <!-- Main building facade -->
  <rect x="200" y="200" width="400" height="250" fill="#f5f5f5" />
  
  <!-- Steps up to building -->
  <rect x="250" y="400" width="300" height="10" fill="#d9d9d9" />
  <rect x="270" y="410" width="260" height="10" fill="#d9d9d9" />
  <rect x="290" y="420" width="220" height="10" fill="#d9d9d9" />
  <rect x="310" y="430" width="180" height="10" fill="#d9d9d9" />
  <rect x="330" y="440" width="140" height="10" fill="#d9d9d9" />
  
  <!-- Main columns -->
  <g fill="#ffffff" stroke="#e0e0e0" stroke-width="1">
    <!-- Left side columns -->
    <rect x="220" y="200" width="20" height="200" rx="2" />
    <rect x="260" y="200" width="20" height="200" rx="2" />
    <rect x="300" y="200" width="20" height="200" rx="2" />
    
    <!-- Right side columns -->
    <rect x="480" y="200" width="20" height="200" rx="2" />
    <rect x="520" y="200" width="20" height="200" rx="2" />
    <rect x="560" y="200" width="20" height="200" rx="2" />
    
    <!-- Center columns -->
    <rect x="340" y="200" width="20" height="200" rx="2" />
    <rect x="380" y="200" width="20" height="200" rx="2" />
    <rect x="420" y="200" width="20" height="200" rx="2" />
  </g>
  
  <!-- Windows -->
  <g fill="#a5d6f7">
    <rect x="232" y="220" width="10" height="25" rx="1" />
    <rect x="232" y="260" width="10" height="25" rx="1" />
    <rect x="232" y="300" width="10" height="25" rx="1" />
    <rect x="232" y="340" width="10" height="25" rx="1" />
    
    <rect x="272" y="220" width="10" height="25" rx="1" />
    <rect x="272" y="260" width="10" height="25" rx="1" />
    <rect x="272" y="300" width="10" height="25" rx="1" />
    <rect x="272" y="340" width="10" height="25" rx="1" />
    
    <rect x="312" y="220" width="10" height="25" rx="1" />
    <rect x="312" y="260" width="10" height="25" rx="1" />
    <rect x="312" y="300" width="10" height="25" rx="1" />
    <rect x="312" y="340" width="10" height="25" rx="1" />
    
    <rect x="352" y="220" width="10" height="25" rx="1" />
    <rect x="352" y="260" width="10" height="25" rx="1" />
    <rect x="352" y="300" width="10" height="25" rx="1" />
    <rect x="352" y="340" width="10" height="25" rx="1" />
    
    <rect x="392" y="220" width="10" height="25" rx="1" />
    <rect x="392" y="260" width="10" height="25" rx="1" />
    <rect x="392" y="300" width="10" height="25" rx="1" />
    <rect x="392" y="340" width="10" height="25" rx="1" />
    
    <rect x="432" y="220" width="10" height="25" rx="1" />
    <rect x="432" y="260" width="10" height="25" rx="1" />
    <rect x="432" y="300" width="10" height="25" rx="1" />
    <rect x="432" y="340" width="10" height="25" rx="1" />
    
    <rect x="472" y="220" width="10" height="25" rx="1" />
    <rect x="472" y="260" width="10" height="25" rx="1" />
    <rect x="472" y="300" width="10" height="25" rx="1" />
    <rect x="472" y="340" width="10" height="25" rx="1" />
    
    <rect x="512" y="220" width="10" height="25" rx="1" />
    <rect x="512" y="260" width="10" height="25" rx="1" />
    <rect x="512" y="300" width="10" height="25" rx="1" />
    <rect x="512" y="340" width="10" height="25" rx="1" />
    
    <rect x="552" y="220" width="10" height="25" rx="1" />
    <rect x="552" y="260" width="10" height="25" rx="1" />
    <rect x="552" y="300" width="10" height="25" rx="1" />
    <rect x="552" y="340" width="10" height="25" rx="1" />
  </g>
  
  <!-- Main entrance -->
  <rect x="360" y="350" width="80" height="50" fill="#424242" />
  
  <!-- Small decorative elements -->
  <rect x="150" y="180" width="500" height="10" fill="#e0e0e0" />
  <rect x="150" y="190" width="500" height="10" fill="#d0d0d0" />
  
  <!-- Trees -->
  <g>
    <ellipse cx="120" cy="450" rx="40" ry="60" fill="#1b5e20" />
    <rect x="115" y="450" width="10" height="50" fill="#6d4c41" />
    
    <ellipse cx="680" cy="450" rx="40" ry="60" fill="#1b5e20" />
    <rect x="675" y="450" width="10" height="50" fill="#6d4c41" />
    
    <ellipse cx="180" cy="480" rx="30" ry="40" fill="#2e7d32" />
    <rect x="175" y="480" width="10" height="40" fill="#6d4c41" />
    
    <ellipse cx="620" cy="480" rx="30" ry="40" fill="#2e7d32" />
    <rect x="615" y="480" width="10" height="40" fill="#6d4c41" />
  </g>
</svg>